<?xml version="1.0" encoding="utf-8"?>
<!-- Svg Vector Icons : http://www.onlinewebfonts.com/icon -->
<!DOCTYPE svg PUBLIC "-//W3C//DTD SVG 1.1//EN" "http://www.w3.org/Graphics/SVG/1.1/DTD/svg11.dtd">
<svg version="1.1" xmlns="http://www.w3.org/2000/svg" xmlns:xlink="http://www.w3.org/1999/xlink" x="0px" y="0px" viewBox="0 0 256 256" enable-background="new 0 0 256 256" xml:space="preserve">
<metadata> Svg Vector Icons : http://www.onlinewebfonts.com/icon </metadata>
<g><g><path fill="#000000" d="M224.4,221.8c13.6-19.4,21.6-43.1,21.6-68.7c0-65.7-52.8-119-118-119c-65.2,0-118,53.3-118,119c0,25.6,8,49.3,21.6,68.7c11-16.8,34.2-29.9,63.3-35.7c-11.3-11.2-18.5-27.9-18.5-46.6c0-33.5,23.1-60.7,51.6-60.7c28.5,0,51.6,27.2,51.6,60.7c0,18.7-7.2,35.4-18.5,46.6C190.2,191.9,213.4,205.1,224.4,221.8L224.4,221.8z"/></g></g>
</svg>